<svg xmlns="http://www.w3.org/2000/svg" viewBox="0 0 52 59.957"><defs><style>.cls-1{fill:#7c62e3;}.cls-2{fill:#b6a7ef;}.cls-3,.cls-4{fill:none;}.cls-3,.cls-4,.cls-5,.cls-6,.cls-7{stroke:#fff;stroke-miterlimit:10;}.cls-3,.cls-4,.cls-6{stroke-linecap:round;}.cls-3{stroke-width:1.04px;}.cls-4{stroke-width:0.51px;}.cls-5,.cls-6,.cls-7{fill:#fff;}.cls-5{stroke-width:0.85px;}.cls-6,.cls-7{stroke-width:0.17px;}</style></defs><g id="Layer_2" data-name="Layer 2"><path class="cls-1" d="M31,60.5l-1.766-.631C18.574,56.062,9.147,47.452,6.239,36.251a26.852,26.852,0,0,1-.86-6.158L5,12.6,31,.559Z" transform="translate(-5 -0.543)"/><path class="cls-2" d="M31,60.484l1.766-.63c10.66-3.808,20.087-12.418,23-23.619a26.844,26.844,0,0,0,.86-6.158L57,12.586,31,.543Z" transform="translate(-5 -0.543)"/></g><g id="Layer_4" data-name="Layer 4"><path class="cls-3" d="M43.337,42.515c-9.856,9.917-28.36,1.957-26.883-12.307,1.157-14.65,23.278-19.1,28.272-4.354" transform="translate(-5 -0.543)"/><path class="cls-3" d="M39.7,39.145c-6.677,6.832-19.528,1.247-18.433-8.439.72-10.037,16.058-13.052,19.385-2.985" transform="translate(-5 -0.543)"/><path class="cls-4" d="M32.294,20.364a.505.505,0,0,1-1.01,0A.505.505,0,0,1,32.294,20.364Z" transform="translate(-5 -0.543)"/><path class="cls-4" d="M37.216,18.5a.663.663,0,0,1-1.325,0A.663.663,0,0,1,37.216,18.5Z" transform="translate(-5 -0.543)"/><path class="cls-4" d="M38.226,23.078a.5.5,0,0,0,1.009,0A.5.5,0,0,0,38.226,23.078Z" transform="translate(-5 -0.543)"/></g><g id="Layer_6" data-name="Layer 6"><path class="cls-5" d="M17.88,38.065c1.215-.59,2.626-1.41,4.026-1.167-.976-2.635-1.793-5.5-.687-8.235.839-4.7,4.433-3.159.845-5.573L20.29,21.713c-.83,1.711-2.5,5.145-3.331,6.855A31.827,31.827,0,0,0,17.88,38.065Z" transform="translate(-5 -0.543)"/></g><g id="Layer_5" data-name="Layer 5"><path class="cls-6" d="M32.294,38.728C26.948,23.433,12.5,31.366,8.168,14.2,7.4,27.52,15.714,28.78,26.3,32.922c-6.78-1.4-14.893-2.4-17.235-10.1.66,9.368,8.409,11.688,16.477,12.058-5.314.723-12.208-.058-15.016-5.172C15.28,42.806,23.192,33.572,32.294,38.728Z" transform="translate(-5 -0.543)"/><path d="M6.136,48.731" transform="translate(-5 -0.543)"/><path class="cls-7" d="M11.61,15.025c2.223,4.144,6.636,6.567,10.587,8.936l1.388.884-1.452,2.082C18.462,23.338,12.466,20.493,11.61,15.025Z" transform="translate(-5 -0.543)"/></g><g id="Layer_7" data-name="Layer 7"><path class="cls-4" d="M40.687,42.325a13.361,13.361,0,0,1-4.922,2.335" transform="translate(-5 -0.543)"/><path class="cls-4" d="M33.682,45.1a10.536,10.536,0,0,1-6.058-.568" transform="translate(-5 -0.543)"/><path class="cls-4" d="M25.541,43.714a13.837,13.837,0,0,1-3.6-2.588" transform="translate(-5 -0.543)"/><path class="cls-4" d="M20.682,39.675a5.944,5.944,0,0,1-1.388-2.9" transform="translate(-5 -0.543)"/><path class="cls-4" d="M33.114,43.714a6.841,6.841,0,0,0,2.524-.5" transform="translate(-5 -0.543)"/><path class="cls-4" d="M31.536,43.714a9.728,9.728,0,0,1-5.364-1.263" transform="translate(-5 -0.543)"/><path class="cls-4" d="M24.279,41.126a8.14,8.14,0,0,1-3.408-4.1" transform="translate(-5 -0.543)"/><path class="cls-4" d="M19.988,39.012a.537.537,0,0,1-1.073,0A.537.537,0,0,1,19.988,39.012Z" transform="translate(-5 -0.543)"/><path class="cls-4" d="M23.459,38.791a.758.758,0,0,1-1.515,0A.758.758,0,0,1,23.459,38.791Z" transform="translate(-5 -0.543)"/><path class="cls-4" d="M29.075,42.609a.726.726,0,0,1-1.451,0A.726.726,0,0,1,29.075,42.609Z" transform="translate(-5 -0.543)"/><path class="cls-4" d="M36.08,42.578a.631.631,0,0,1-1.262,0A.631.631,0,0,1,36.08,42.578Z" transform="translate(-5 -0.543)"/><path class="cls-4" d="M32.42,45.985a.631.631,0,0,1-1.262,0A.631.631,0,0,1,32.42,45.985Z" transform="translate(-5 -0.543)"/><path class="cls-4" d="M21.439,22.257a7.812,7.812,0,0,1,1.894-1.577" transform="translate(-5 -0.543)"/><path class="cls-4" d="M25.163,19.733a13.082,13.082,0,0,1,4.48-1.325" transform="translate(-5 -0.543)"/><path class="cls-4" d="M22.449,23.078A10.141,10.141,0,0,1,27.182,20.3" transform="translate(-5 -0.543)"/><path class="cls-4" d="M31.978,18.345A10.54,10.54,0,0,1,38.1,20.238" transform="translate(-5 -0.543)"/><path class="cls-4" d="M29.454,19.859a9.383,9.383,0,0,1,5.679.5" transform="translate(-5 -0.543)"/><path class="cls-4" d="M37.02,21.257a6,6,0,0,1,2.159,1.559" transform="translate(-5 -0.543)"/><path class="cls-4" d="M39.74,21.058a13.189,13.189,0,0,1,3.85,5.364" transform="translate(-5 -0.543)"/><path class="cls-4" d="M25.731,22.163a.726.726,0,0,1-1.452,0A.726.726,0,0,1,25.731,22.163Z" transform="translate(-5 -0.543)"/></g></svg>