<svg width="512" height="512" viewBox="0 0 512 512" fill="none" xmlns="http://www.w3.org/2000/svg">
<rect width="512" height="512" fill="white"/>
<g clip-path="url(#clip0_1_18)">
<path d="M391.944 383.417C391.944 392.831 384.304 400.472 374.889 400.472H349.306C339.891 400.472 332.25 392.831 332.25 383.417V315.194C332.25 305.78 339.891 298.139 349.306 298.139H374.889C384.304 298.139 391.944 305.78 391.944 315.194V383.417ZM178.75 383.417C178.75 392.831 171.109 400.472 161.694 400.472H136.111C126.696 400.472 119.056 392.831 119.056 383.417V315.194C119.056 305.78 126.696 298.139 136.111 298.139H161.694C171.109 298.139 178.75 305.78 178.75 315.194V383.417ZM144.639 234.181C144.639 241.25 138.917 246.972 131.847 246.972H114.792C107.722 246.972 102 241.25 102 234.181C102 227.111 107.722 221.389 114.792 221.389H131.847C138.917 221.389 144.639 227.111 144.639 234.181ZM366.361 234.181C366.361 241.25 372.092 246.972 379.153 246.972H396.208C403.269 246.972 409 241.25 409 234.181C409 227.111 403.269 221.389 396.208 221.389H379.153C372.092 221.389 366.361 227.111 366.361 234.181Z" fill="#66757F"/>
<path d="M178.75 144.639C212.861 136.111 298.139 136.111 332.25 144.639C365.346 152.911 374.889 238.444 374.889 238.444C374.889 238.444 391.944 238.444 391.944 272.556V340.778C391.944 340.778 391.944 366.361 366.361 374.889C333.009 386.009 298.139 383.417 255.5 383.417C212.861 383.417 178 386.009 144.639 374.889C119.056 366.361 119.056 340.778 119.056 340.778V272.556C119.056 272.556 119.056 238.444 136.111 238.444C136.111 238.444 145.662 152.911 178.75 144.639Z" fill="#CCD6DD"/>
<path d="M255.5 281.083C206.738 281.083 160.535 280.222 119.056 278.704V340.778C119.056 340.778 119.056 366.361 144.639 374.889C178 386.009 212.861 383.417 255.5 383.417C298.139 383.417 333.009 386.009 366.361 374.889C391.944 366.361 391.944 340.778 391.944 340.778V278.704C350.465 280.222 304.262 281.083 255.5 281.083Z" fill="#292F33"/>
<path d="M255.5 229.917C288.801 229.917 329.035 231.622 357.833 234.701L349.305 187.278C340.778 161.694 289.611 161.694 255.5 161.694C221.389 161.694 170.222 161.694 161.694 187.278L153.167 234.701C181.965 231.622 222.199 229.917 255.5 229.917Z" fill="#55ACEE"/>
<path d="M204.333 306.667C204.333 316.081 196.692 323.722 187.278 323.722H153.167C143.752 323.722 136.111 316.081 136.111 306.667C136.111 297.252 143.752 289.611 153.167 289.611H187.278C196.692 289.611 204.333 297.252 204.333 306.667ZM306.667 306.667C306.667 316.081 314.308 323.722 323.722 323.722H357.833C367.248 323.722 374.889 316.081 374.889 306.667C374.889 297.252 367.248 289.611 357.833 289.611H323.722C314.308 289.611 306.667 297.252 306.667 306.667Z" fill="#CCD6DD"/>
<path d="M349.305 345.042C349.305 352.103 343.575 357.833 336.514 357.833H174.486C167.417 357.833 161.694 352.103 161.694 345.042C161.694 337.981 167.417 332.25 174.486 332.25H336.514C343.575 332.25 349.305 337.981 349.305 345.042Z" fill="#66757F"/>
<path d="M204.325 281.083C203.046 281.083 201.741 280.793 200.521 280.188L149.355 254.605C145.142 252.498 143.436 247.373 145.543 243.16C147.649 238.948 152.757 237.225 156.987 239.348L208.154 264.932C212.367 267.038 214.072 272.163 211.966 276.376C210.465 279.361 207.455 281.083 204.325 281.083V281.083ZM306.675 281.083C303.546 281.083 300.535 279.361 299.034 276.367C296.928 272.155 298.634 267.03 302.846 264.923L354.013 239.34C358.226 237.242 363.342 238.948 365.457 243.152C367.564 247.364 365.858 252.49 361.645 254.596L310.479 280.179C309.259 280.793 307.954 281.083 306.675 281.083V281.083Z" fill="#99AAB5"/>
<path d="M255.5 131.847C255.5 138.917 249.778 144.639 242.708 144.639H183.014C175.944 144.639 170.222 138.917 170.222 131.847C170.222 124.778 175.944 119.056 183.014 119.056H242.708C249.778 119.056 255.5 124.778 255.5 131.847Z" fill="#DD2E44"/>
<path d="M340.778 131.847C340.778 138.917 335.047 144.639 327.986 144.639H268.292C261.222 144.639 255.5 138.917 255.5 131.847C255.5 124.778 261.222 119.056 268.292 119.056H327.986C335.047 119.056 340.778 124.778 340.778 131.847Z" fill="#55ACEE"/>
<path d="M238.444 119.056H272.556V144.639H238.444V119.056Z" fill="#F5F8FA"/>
</g>
<defs>
<clipPath id="clip0_1_18">
<rect width="307" height="307" fill="white" transform="translate(102 102)"/>
</clipPath>
</defs>
</svg>
