<svg width="512" height="512" viewBox="0 0 512 512" fill="none" xmlns="http://www.w3.org/2000/svg">
<g clip-path="url(#clip0_1_36)">
<path d="M483.556 469.333C483.556 485.035 470.812 497.778 455.111 497.778H412.444C396.743 497.778 384 485.035 384 469.333V355.556C384 339.854 396.743 327.111 412.444 327.111H455.111C470.812 327.111 483.556 339.854 483.556 355.556V469.333ZM128 469.333C128 485.035 115.257 497.778 99.5556 497.778H56.8889C41.1876 497.778 28.4444 485.035 28.4444 469.333V355.556C28.4444 339.854 41.1876 327.111 56.8889 327.111H99.5556C115.257 327.111 128 339.854 128 355.556V469.333ZM71.1111 220.444C71.1111 232.235 61.568 241.778 49.7778 241.778H21.3333C9.54311 241.778 0 232.235 0 220.444C0 208.654 9.54311 199.111 21.3333 199.111H49.7778C61.568 199.111 71.1111 208.654 71.1111 220.444ZM440.889 220.444C440.889 232.235 450.446 241.778 462.222 241.778H490.667C502.443 241.778 512 232.235 512 220.444C512 208.654 502.443 199.111 490.667 199.111H462.222C450.446 199.111 440.889 208.654 440.889 220.444Z" fill="#66757F"/>
<path d="M128 71.1111C184.889 56.8889 327.111 56.8889 384 71.1111C439.196 84.9067 455.111 227.556 455.111 227.556C455.111 227.556 483.555 227.556 483.555 284.444V398.222C483.555 398.222 483.555 440.889 440.889 455.111C385.266 473.657 327.111 469.333 256 469.333C184.889 469.333 126.748 473.657 71.1111 455.111C28.4445 440.889 28.4445 398.222 28.4445 398.222V284.444C28.4445 284.444 28.4445 227.556 56.8889 227.556C56.8889 227.556 72.8178 84.9067 128 71.1111Z" fill="#CCD6DD"/>
<path d="M256 298.667C174.677 298.667 97.6213 297.23 28.4445 294.699V398.222C28.4445 398.222 28.4445 440.889 71.1111 455.111C126.748 473.657 184.889 469.333 256 469.333C327.111 469.333 385.266 473.657 440.889 455.111C483.555 440.889 483.555 398.222 483.555 398.222V294.699C414.379 297.23 337.323 298.667 256 298.667Z" fill="#292F33"/>
<path d="M256 213.333C311.538 213.333 378.638 216.178 426.666 221.312L412.444 142.222C398.222 99.5555 312.889 99.5555 256 99.5555C199.111 99.5555 113.778 99.5555 99.5556 142.222L85.3334 221.312C133.362 216.178 200.462 213.333 256 213.333Z" fill="#55ACEE"/>
<path d="M170.667 341.333C170.667 357.035 157.924 369.778 142.222 369.778H85.3333C69.632 369.778 56.8889 357.035 56.8889 341.333C56.8889 325.632 69.632 312.889 85.3333 312.889H142.222C157.924 312.889 170.667 325.632 170.667 341.333ZM341.333 341.333C341.333 357.035 354.077 369.778 369.778 369.778H426.667C442.368 369.778 455.111 357.035 455.111 341.333C455.111 325.632 442.368 312.889 426.667 312.889H369.778C354.077 312.889 341.333 325.632 341.333 341.333Z" fill="#CCD6DD"/>
<path d="M412.444 405.333C412.444 417.109 402.887 426.667 391.111 426.667H120.889C109.099 426.667 99.5555 417.109 99.5555 405.333C99.5555 393.557 109.099 384 120.889 384H391.111C402.887 384 412.444 393.557 412.444 405.333Z" fill="#66757F"/>
<path d="M170.652 298.667C168.519 298.667 166.343 298.183 164.309 297.173L78.976 254.507C71.9502 250.994 69.1058 242.446 72.6187 235.42C76.1316 228.395 84.6507 225.522 91.7049 229.063L177.038 271.73C184.064 275.243 186.909 283.79 183.396 290.816C180.893 295.794 175.872 298.667 170.652 298.667V298.667ZM341.348 298.667C336.128 298.667 331.108 295.794 328.605 290.802C325.092 283.776 327.936 275.228 334.962 271.716L420.295 229.049C427.321 225.55 435.854 228.395 439.381 235.406C442.894 242.432 440.05 250.979 433.024 254.492L347.691 297.159C345.657 298.183 343.481 298.667 341.348 298.667V298.667Z" fill="#99AAB5"/>
<path d="M256 49.7778C256 61.568 246.457 71.1111 234.667 71.1111H135.111C123.321 71.1111 113.778 61.568 113.778 49.7778C113.778 37.9876 123.321 28.4445 135.111 28.4445H234.667C246.457 28.4445 256 37.9876 256 49.7778Z" fill="#DD2E44"/>
<path d="M398.222 49.7778C398.222 61.568 388.665 71.1111 376.889 71.1111H277.333C265.543 71.1111 256 61.568 256 49.7778C256 37.9876 265.543 28.4445 277.333 28.4445H376.889C388.665 28.4445 398.222 37.9876 398.222 49.7778Z" fill="#55ACEE"/>
<path d="M227.555 28.4445H284.444V71.1111H227.555V28.4445Z" fill="#F5F8FA"/>
</g>
<defs>
<clipPath id="clip0_1_36">
<rect width="512" height="512" fill="white"/>
</clipPath>
</defs>
</svg>
