<svg width="1168" height="226" viewBox="0 0 1168 226" fill="none" xmlns="http://www.w3.org/2000/svg">
<g clip-path="url(#clip0_1_21)">
<g clip-path="url(#clip1_1_21)">
<path d="M213.444 207.167C213.444 214.097 207.82 219.722 200.889 219.722H182.056C175.125 219.722 169.5 214.097 169.5 207.167V156.944C169.5 150.014 175.125 144.389 182.056 144.389H200.889C207.82 144.389 213.444 150.014 213.444 156.944V207.167ZM56.5 207.167C56.5 214.097 50.8751 219.722 43.9444 219.722H25.1111C18.1804 219.722 12.5556 214.097 12.5556 207.167V156.944C12.5556 150.014 18.1804 144.389 25.1111 144.389H43.9444C50.8751 144.389 56.5 150.014 56.5 156.944V207.167ZM31.3889 97.3056C31.3889 102.51 27.1765 106.722 21.9722 106.722H9.41667C4.21239 106.722 0 102.51 0 97.3056C0 92.1013 4.21239 87.8889 9.41667 87.8889H21.9722C27.1765 87.8889 31.3889 92.1013 31.3889 97.3056ZM194.611 97.3056C194.611 102.51 198.83 106.722 204.028 106.722H216.583C221.781 106.722 226 102.51 226 97.3056C226 92.1013 221.781 87.8889 216.583 87.8889H204.028C198.83 87.8889 194.611 92.1013 194.611 97.3056Z" fill="#66757F"/>
<path d="M56.5 31.3889C81.6111 25.1111 144.389 25.1111 169.5 31.3889C193.864 37.4783 200.889 100.444 200.889 100.444C200.889 100.444 213.444 100.444 213.444 125.556V175.778C213.444 175.778 213.444 194.611 194.611 200.889C170.059 209.075 144.389 207.167 113 207.167C81.6111 207.167 55.9475 209.075 31.3889 200.889C12.5556 194.611 12.5556 175.778 12.5556 175.778V125.556C12.5556 125.556 12.5556 100.444 25.1111 100.444C25.1111 100.444 32.1422 37.4783 56.5 31.3889Z" fill="#CCD6DD"/>
<path d="M113 131.833C77.1036 131.833 43.0907 131.199 12.5556 130.082V175.778C12.5556 175.778 12.5556 194.611 31.3889 200.889C55.9475 209.075 81.6111 207.167 113 207.167C144.389 207.167 170.059 209.075 194.611 200.889C213.444 194.611 213.444 175.778 213.444 175.778V130.082C182.909 131.199 148.896 131.833 113 131.833Z" fill="#292F33"/>
<path d="M113 94.1666C137.515 94.1666 167.133 95.4222 188.333 97.6884L182.055 62.7777C175.778 43.9444 138.111 43.9444 113 43.9444C87.8888 43.9444 50.2222 43.9444 43.9444 62.7777L37.6667 97.6884C58.8667 95.4222 88.4852 94.1666 113 94.1666Z" fill="#55ACEE"/>
<path d="M75.3334 150.667C75.3334 157.597 69.7085 163.222 62.7778 163.222H37.6667C30.736 163.222 25.1111 157.597 25.1111 150.667C25.1111 143.736 30.736 138.111 37.6667 138.111H62.7778C69.7085 138.111 75.3334 143.736 75.3334 150.667ZM150.667 150.667C150.667 157.597 156.292 163.222 163.222 163.222H188.333C195.264 163.222 200.889 157.597 200.889 150.667C200.889 143.736 195.264 138.111 188.333 138.111H163.222C156.292 138.111 150.667 143.736 150.667 150.667Z" fill="#CCD6DD"/>
<path d="M182.055 178.917C182.055 184.115 177.837 188.333 172.639 188.333H53.3611C48.1568 188.333 43.9444 184.115 43.9444 178.917C43.9444 173.719 48.1568 169.5 53.3611 169.5H172.639C177.837 169.5 182.055 173.719 182.055 178.917Z" fill="#66757F"/>
<path d="M75.3271 131.833C74.3854 131.833 73.4249 131.62 72.5272 131.174L34.8605 112.341C31.7593 110.79 30.5037 107.017 32.0543 103.916C33.6049 100.815 37.3653 99.5467 40.4791 101.11L78.1458 119.943C81.247 121.494 82.5026 125.267 80.952 128.368C79.8471 130.565 77.631 131.833 75.3271 131.833V131.833ZM150.673 131.833C148.369 131.833 146.153 130.565 145.048 128.362C143.497 125.261 144.753 121.488 147.854 119.937L185.521 101.104C188.622 99.5592 192.389 100.815 193.946 103.91C195.496 107.011 194.241 110.784 191.14 112.335L153.473 131.168C152.575 131.62 151.615 131.833 150.673 131.833V131.833Z" fill="#99AAB5"/>
<path d="M113 21.9722C113 27.1765 108.788 31.3889 103.583 31.3889H59.6389C54.4346 31.3889 50.2222 27.1765 50.2222 21.9722C50.2222 16.7679 54.4346 12.5555 59.6389 12.5555H103.583C108.788 12.5555 113 16.7679 113 21.9722Z" fill="#DD2E44"/>
<path d="M175.778 21.9722C175.778 27.1765 171.559 31.3889 166.361 31.3889H122.417C117.212 31.3889 113 27.1765 113 21.9722C113 16.7679 117.212 12.5555 122.417 12.5555H166.361C171.559 12.5555 175.778 16.7679 175.778 21.9722Z" fill="#55ACEE"/>
<path d="M100.444 12.5555H125.556V31.3889H100.444V12.5555Z" fill="#F5F8FA"/>
</g>
<path d="M381.479 201.46C378.142 203.413 372.893 205 365.731 206.221C358.57 207.441 350.31 208.052 340.951 208.052C327.768 208.052 315.967 205.407 305.551 200.117C295.215 194.746 287.2 187.259 281.503 177.656C275.806 168.053 272.958 157.271 272.958 145.308C272.958 130.985 275.969 118.737 281.991 108.564C288.095 98.3105 296.762 90.498 307.992 85.127C319.223 79.6745 332.243 76.9482 347.055 76.9482C355.193 76.9482 362.476 77.4772 368.905 78.5352C375.416 79.5931 379.607 80.8138 381.479 82.1973V122.725C378.874 120.69 375.131 118.9 370.248 117.354C365.365 115.807 360.849 115.034 356.698 115.034C346.526 115.034 338.795 117.476 333.505 122.358C328.297 127.16 325.692 133.955 325.692 142.744C325.692 151.37 328.256 158.084 333.383 162.886C338.591 167.606 345.712 169.966 354.745 169.966C364.429 169.966 373.34 167.646 381.479 163.008V201.46ZM481.82 205V185.713H481.332C477.019 191.654 473.113 196.007 469.613 198.774C466.195 201.541 462.289 203.779 457.895 205.488C453.581 207.197 448.536 208.052 442.758 208.052C429.086 208.052 418.669 203.617 411.508 194.746C404.346 185.876 400.766 172.773 400.766 155.439V80H452.768V151.533C452.768 163.822 457.366 169.966 466.562 169.966C471.607 169.966 475.391 168.298 477.914 164.961C480.518 161.624 481.82 156.904 481.82 150.801V80H533.822V205H481.82ZM660.287 163.496C660.287 177.656 654.875 188.643 644.052 196.455C633.31 204.186 618.295 208.052 599.008 208.052C593.393 208.052 586.435 207.482 578.134 206.343C569.914 205.203 563.201 203.82 557.992 202.192V165.693C573.373 172.529 586.231 175.947 596.566 175.947C606.739 175.947 611.825 173.302 611.825 168.013C611.825 165.815 610.645 164.025 608.285 162.642C605.925 161.177 599.74 158.776 589.73 155.439C578.663 151.94 570.606 147.301 565.561 141.523C560.515 135.745 557.992 128.218 557.992 118.94C557.992 106.001 563.119 95.7878 573.373 88.3008C583.708 80.7324 598.194 76.9482 616.83 76.9482C627.735 76.9482 639.291 78.5352 651.498 81.709V116.743C646.371 114.546 640.756 112.715 634.652 111.25C628.549 109.785 623.422 109.053 619.271 109.053C615.854 109.053 613.127 109.622 611.093 110.762C609.058 111.901 608.041 113.488 608.041 115.522C608.041 117.882 609.14 119.795 611.337 121.26C613.534 122.725 617.929 124.474 624.521 126.509C637.297 130.252 646.452 135.054 651.986 140.913C657.52 146.772 660.287 154.3 660.287 163.496ZM767.587 203.291C765.227 204.43 761.361 205.488 755.99 206.465C750.619 207.523 744.149 208.052 736.581 208.052C722.095 208.052 710.743 204.064 702.523 196.089C694.385 188.114 690.316 176.761 690.316 162.031V116.011H670.663V80H690.316V55.4639L741.586 41.3037V80H767.587V116.011H741.586V153.486C741.586 164.473 745.94 169.966 754.647 169.966C758.716 169.966 763.03 169.071 767.587 167.28V203.291ZM922.86 140.303C922.86 161.38 916.472 177.941 903.695 189.985C891 202.03 873.218 208.052 850.351 208.052C827.646 208.052 809.945 202.192 797.25 190.474C784.636 178.674 778.329 162.438 778.329 141.768C778.329 128.503 781.299 116.987 787.24 107.222C793.181 97.4561 801.645 89.9691 812.631 84.7607C823.617 79.5524 836.272 76.9482 850.595 76.9482C865.406 76.9482 878.223 79.6745 889.047 85.127C899.952 90.5794 908.293 98.1478 914.071 107.832C919.931 117.516 922.86 128.34 922.86 140.303ZM870.126 140.547C870.126 123.538 863.616 115.034 850.595 115.034C837.574 115.034 831.063 123.945 831.063 141.768C831.063 160.566 837.655 169.966 850.839 169.966C863.697 169.966 870.126 160.16 870.126 140.547ZM1025.77 205V190.474H1025.28C1021.13 195.926 1015.72 200.239 1009.04 203.413C1002.37 206.506 995.777 208.052 989.267 208.052C978.606 208.052 969.206 205.448 961.068 200.239C952.93 194.95 946.827 187.585 942.758 178.145C938.77 168.704 936.776 157.555 936.776 144.697C936.776 131.432 939.177 119.673 943.979 109.419C948.78 99.165 955.535 91.1898 964.242 85.4932C972.95 79.7965 982.715 76.9482 993.539 76.9482C998.666 76.9482 1003.39 77.6807 1007.7 79.1455C1012.09 80.6104 1015.88 82.6042 1019.05 85.127C1022.31 87.5684 1024.38 90.0098 1025.28 92.4512H1025.77V19.9414H1077.77V205H1025.77ZM1026.86 138.716C1026.86 131.229 1025.2 125.41 1021.86 121.26C1018.6 117.109 1014.17 115.034 1008.55 115.034C1002.94 115.034 998.34 117.638 994.76 122.847C991.26 127.974 989.511 134.85 989.511 143.477C989.511 161.136 995.614 169.966 1007.82 169.966C1013.6 169.966 1018.2 167.606 1021.62 162.886C1025.11 158.084 1026.86 151.126 1026.86 142.012V138.716ZM1157.97 46.3086C1157.97 53.6328 1155.28 59.5736 1149.91 64.1309C1144.62 68.6882 1137.62 70.9668 1128.92 70.9668C1120.45 70.9668 1113.49 68.6068 1108.04 63.8867C1102.67 59.1667 1099.98 53.3073 1099.98 46.3086C1099.98 39.1471 1102.59 33.3691 1107.8 28.9746C1113.09 24.4987 1120.13 22.2607 1128.92 22.2607C1137.62 22.2607 1144.62 24.4987 1149.91 28.9746C1155.28 33.3691 1157.97 39.1471 1157.97 46.3086ZM1102.91 205V80H1154.92V205H1102.91Z" fill="black"/>
</g>
<defs>
<clipPath id="clip0_1_21">
<rect width="1168" height="226" fill="white"/>
</clipPath>
<clipPath id="clip1_1_21">
<rect width="226" height="226" fill="white"/>
</clipPath>
</defs>
</svg>
